<?xml version="1.0" encoding="UTF-8"?>
<svg xmlns="http://www.w3.org/2000/svg" xmlns:xlink="http://www.w3.org/1999/xlink" width="19pt" height="19pt" viewBox="0 0 19 19" version="1.1">
<g id="surface1">
<path style=" stroke:none;fill-rule:nonzero;fill:rgb(0%,0%,0%);fill-opacity:1;" d="M 8.625 0.128906 C 8.382812 0.152344 8.113281 0.1875 7.992188 0.210938 C 7.933594 0.21875 7.800781 0.246094 7.695312 0.265625 C 7.589844 0.28125 7.480469 0.304688 7.453125 0.316406 C 7.421875 0.328125 7.367188 0.34375 7.324219 0.347656 C 7.175781 0.375 7.039062 0.410156 7.019531 0.425781 C 7.007812 0.433594 6.984375 0.441406 6.960938 0.441406 C 6.921875 0.441406 6.84375 0.464844 6.523438 0.570312 C 6.277344 0.652344 6.109375 0.714844 6.007812 0.761719 C 5.960938 0.78125 5.867188 0.820312 5.804688 0.84375 C 5.742188 0.871094 5.652344 0.90625 5.609375 0.929688 C 5.5625 0.953125 5.515625 0.972656 5.496094 0.972656 C 5.480469 0.972656 5.46875 0.980469 5.46875 0.992188 C 5.46875 1.003906 5.457031 1.011719 5.445312 1.011719 C 5.40625 1.011719 4.78125 1.339844 4.75 1.375 C 4.742188 1.378906 4.707031 1.402344 4.664062 1.425781 C 4.570312 1.472656 4.003906 1.84375 3.960938 1.890625 C 3.945312 1.90625 3.921875 1.921875 3.910156 1.921875 C 3.898438 1.921875 3.882812 1.929688 3.878906 1.9375 C 3.878906 1.949219 3.816406 1.996094 3.746094 2.046875 C 3.636719 2.128906 3.574219 2.179688 3.476562 2.269531 C 3.460938 2.28125 3.402344 2.328125 3.347656 2.375 C 3.253906 2.449219 2.972656 2.710938 2.777344 2.90625 C 2.660156 3.023438 2.480469 3.21875 2.355469 3.367188 C 2.285156 3.449219 2.222656 3.519531 2.214844 3.527344 C 2.210938 3.53125 2.15625 3.597656 2.101562 3.671875 C 2.042969 3.75 1.992188 3.816406 1.984375 3.820312 C 1.953125 3.847656 1.746094 4.144531 1.65625 4.285156 C 1.601562 4.371094 1.546875 4.445312 1.535156 4.449219 C 1.527344 4.453125 1.519531 4.46875 1.519531 4.476562 C 1.519531 4.488281 1.480469 4.558594 1.429688 4.636719 C 1.378906 4.71875 1.3125 4.835938 1.28125 4.898438 C 1.246094 4.960938 1.203125 5.039062 1.183594 5.066406 C 1.164062 5.097656 1.132812 5.152344 1.117188 5.1875 C 1.101562 5.226562 1.082031 5.257812 1.074219 5.257812 C 1.0625 5.257812 1.054688 5.277344 1.054688 5.296875 C 1.054688 5.320312 1.046875 5.34375 1.035156 5.351562 C 1.027344 5.359375 1.011719 5.390625 1.003906 5.425781 C 0.996094 5.460938 0.980469 5.488281 0.96875 5.488281 C 0.957031 5.488281 0.949219 5.507812 0.949219 5.53125 C 0.949219 5.554688 0.941406 5.574219 0.929688 5.574219 C 0.917969 5.574219 0.90625 5.589844 0.90625 5.605469 C 0.90625 5.632812 0.832031 5.816406 0.777344 5.914062 C 0.769531 5.9375 0.761719 5.964844 0.761719 5.984375 C 0.761719 6 0.753906 6.015625 0.746094 6.019531 C 0.730469 6.027344 0.6875 6.132812 0.601562 6.386719 C 0.582031 6.441406 0.554688 6.507812 0.546875 6.527344 C 0.535156 6.546875 0.527344 6.585938 0.527344 6.605469 C 0.527344 6.628906 0.519531 6.652344 0.507812 6.660156 C 0.496094 6.667969 0.484375 6.691406 0.484375 6.710938 C 0.484375 6.757812 0.425781 6.960938 0.398438 7.011719 C 0.386719 7.035156 0.378906 7.066406 0.378906 7.085938 C 0.378906 7.105469 0.371094 7.148438 0.359375 7.1875 C 0.324219 7.296875 0.253906 7.613281 0.230469 7.761719 C 0.21875 7.839844 0.199219 7.957031 0.1875 8.023438 C 0.109375 8.46875 0.0859375 8.828125 0.0859375 9.511719 C 0.0859375 10.109375 0.101562 10.433594 0.148438 10.746094 C 0.214844 11.203125 0.242188 11.359375 0.277344 11.488281 C 0.304688 11.59375 0.355469 11.820312 0.375 11.921875 C 0.378906 11.960938 0.394531 11.996094 0.402344 12.003906 C 0.414062 12.011719 0.421875 12.035156 0.421875 12.054688 C 0.421875 12.078125 0.4375 12.148438 0.457031 12.207031 C 0.527344 12.4375 0.617188 12.699219 0.640625 12.761719 C 0.65625 12.796875 0.683594 12.859375 0.695312 12.898438 C 0.730469 12.996094 0.746094 13.039062 0.800781 13.15625 C 0.824219 13.210938 0.84375 13.261719 0.84375 13.269531 C 0.84375 13.273438 0.894531 13.378906 0.949219 13.5 C 1.007812 13.621094 1.054688 13.734375 1.054688 13.742188 C 1.054688 13.75 1.0625 13.765625 1.074219 13.769531 C 1.082031 13.769531 1.113281 13.828125 1.144531 13.890625 C 1.203125 14.011719 1.289062 14.167969 1.308594 14.1875 C 1.316406 14.191406 1.335938 14.226562 1.351562 14.261719 C 1.390625 14.34375 1.710938 14.847656 1.730469 14.863281 C 1.742188 14.871094 1.820312 14.984375 1.890625 15.09375 C 1.902344 15.113281 1.914062 15.128906 1.921875 15.136719 C 1.933594 15.148438 2.074219 15.320312 2.125 15.390625 C 2.527344 15.914062 3.390625 16.746094 3.875 17.082031 C 3.933594 17.117188 3.992188 17.164062 4.007812 17.179688 C 4.023438 17.191406 4.042969 17.207031 4.050781 17.207031 C 4.058594 17.207031 4.085938 17.222656 4.109375 17.246094 C 4.160156 17.292969 4.519531 17.527344 4.667969 17.609375 C 4.71875 17.640625 4.796875 17.683594 4.84375 17.710938 C 4.890625 17.738281 4.941406 17.765625 4.949219 17.777344 C 5.019531 17.828125 5.796875 18.199219 5.835938 18.199219 C 5.855469 18.199219 5.875 18.207031 5.878906 18.21875 C 5.886719 18.230469 5.910156 18.238281 5.933594 18.238281 C 5.957031 18.238281 5.972656 18.25 5.972656 18.257812 C 5.972656 18.269531 5.996094 18.28125 6.023438 18.289062 C 6.066406 18.296875 6.402344 18.414062 6.492188 18.449219 C 6.597656 18.492188 6.878906 18.578125 6.921875 18.578125 C 6.945312 18.578125 6.96875 18.585938 6.976562 18.597656 C 6.980469 18.605469 7.015625 18.621094 7.054688 18.625 C 7.09375 18.632812 7.230469 18.664062 7.355469 18.691406 C 7.652344 18.761719 7.8125 18.796875 8.179688 18.851562 C 8.4375 18.890625 9.078125 18.9375 9.425781 18.9375 C 9.785156 18.941406 10.558594 18.902344 10.617188 18.882812 C 10.636719 18.875 10.722656 18.859375 10.808594 18.851562 C 10.894531 18.839844 11.015625 18.824219 11.074219 18.8125 C 11.132812 18.800781 11.238281 18.78125 11.316406 18.769531 C 11.535156 18.730469 11.9375 18.632812 12.023438 18.597656 C 12.046875 18.589844 12.089844 18.574219 12.117188 18.570312 C 12.253906 18.542969 12.390625 18.5 12.40625 18.488281 C 12.414062 18.480469 12.4375 18.472656 12.460938 18.472656 C 12.480469 18.472656 12.515625 18.464844 12.535156 18.453125 C 12.578125 18.429688 12.78125 18.355469 12.855469 18.332031 C 12.886719 18.324219 12.957031 18.296875 13.015625 18.273438 C 13.074219 18.246094 13.195312 18.191406 13.289062 18.152344 C 13.382812 18.117188 13.519531 18.050781 13.59375 18.015625 C 13.667969 17.976562 13.742188 17.945312 13.757812 17.945312 C 13.769531 17.945312 13.785156 17.9375 13.789062 17.925781 C 13.792969 17.917969 13.839844 17.890625 13.890625 17.863281 C 14.1875 17.707031 14.261719 17.664062 14.265625 17.648438 C 14.269531 17.636719 14.285156 17.628906 14.296875 17.628906 C 14.3125 17.628906 14.375 17.59375 14.433594 17.554688 C 14.496094 17.515625 14.546875 17.480469 14.554688 17.480469 C 14.566406 17.480469 15.261719 17 15.296875 16.964844 C 15.3125 16.953125 15.359375 16.914062 15.402344 16.875 C 15.609375 16.707031 15.808594 16.535156 15.902344 16.445312 C 16.21875 16.152344 16.664062 15.679688 16.773438 15.527344 C 16.796875 15.496094 16.835938 15.449219 16.855469 15.421875 C 16.878906 15.402344 16.957031 15.304688 17.027344 15.210938 C 17.097656 15.117188 17.160156 15.039062 17.167969 15.035156 C 17.179688 15.03125 17.183594 15.019531 17.183594 15.011719 C 17.183594 15 17.25 14.894531 17.332031 14.78125 C 17.414062 14.664062 17.480469 14.558594 17.480469 14.546875 C 17.480469 14.535156 17.492188 14.523438 17.5 14.523438 C 17.515625 14.523438 17.523438 14.515625 17.523438 14.503906 C 17.523438 14.492188 17.558594 14.425781 17.601562 14.363281 C 17.640625 14.292969 17.707031 14.1875 17.738281 14.125 C 17.769531 14.058594 17.824219 13.957031 17.859375 13.902344 C 17.894531 13.84375 17.933594 13.777344 17.941406 13.75 C 17.953125 13.730469 18 13.625 18.050781 13.523438 C 18.097656 13.421875 18.15625 13.289062 18.179688 13.230469 C 18.203125 13.171875 18.246094 13.074219 18.269531 13.015625 C 18.296875 12.957031 18.324219 12.886719 18.332031 12.855469 C 18.351562 12.800781 18.378906 12.722656 18.410156 12.664062 C 18.421875 12.640625 18.429688 12.609375 18.429688 12.585938 C 18.429688 12.566406 18.4375 12.539062 18.445312 12.527344 C 18.464844 12.507812 18.476562 12.472656 18.546875 12.210938 C 18.566406 12.144531 18.589844 12.066406 18.597656 12.042969 C 18.609375 12.019531 18.621094 11.976562 18.625 11.949219 C 18.632812 11.917969 18.664062 11.800781 18.691406 11.679688 C 18.722656 11.5625 18.753906 11.40625 18.769531 11.332031 C 18.78125 11.257812 18.800781 11.148438 18.8125 11.082031 C 18.835938 10.953125 18.863281 10.757812 18.894531 10.492188 C 18.90625 10.394531 18.917969 10.035156 18.929688 9.699219 C 18.941406 8.9375 18.910156 8.515625 18.785156 7.800781 C 18.773438 7.730469 18.742188 7.574219 18.710938 7.453125 C 18.683594 7.328125 18.648438 7.183594 18.636719 7.125 C 18.621094 7.066406 18.605469 7.011719 18.59375 7 C 18.585938 6.988281 18.578125 6.957031 18.578125 6.929688 C 18.578125 6.90625 18.570312 6.863281 18.558594 6.835938 C 18.546875 6.808594 18.523438 6.730469 18.5 6.660156 C 18.484375 6.589844 18.457031 6.527344 18.445312 6.515625 C 18.4375 6.503906 18.429688 6.480469 18.429688 6.460938 C 18.429688 6.382812 18.140625 5.691406 17.949219 5.308594 C 17.753906 4.917969 17.332031 4.199219 17.269531 4.160156 C 17.257812 4.152344 17.175781 4.035156 17.109375 3.929688 C 17.101562 3.910156 17.085938 3.890625 17.078125 3.882812 C 17.074219 3.878906 16.976562 3.761719 16.863281 3.621094 C 16.75 3.480469 16.628906 3.332031 16.589844 3.292969 C 16.550781 3.25 16.449219 3.136719 16.359375 3.039062 C 16.273438 2.941406 16.179688 2.84375 16.152344 2.820312 C 16.125 2.796875 16.078125 2.753906 16.046875 2.722656 C 15.625 2.335938 15.585938 2.300781 15.558594 2.300781 C 15.546875 2.300781 15.539062 2.292969 15.539062 2.285156 C 15.539062 2.265625 15.316406 2.082031 15.136719 1.953125 C 15.074219 1.910156 15.015625 1.863281 15.011719 1.859375 C 15.003906 1.847656 14.96875 1.824219 14.933594 1.804688 C 14.894531 1.78125 14.863281 1.757812 14.863281 1.746094 C 14.863281 1.738281 14.847656 1.730469 14.832031 1.730469 C 14.816406 1.730469 14.800781 1.726562 14.792969 1.714844 C 14.785156 1.691406 14.488281 1.5 14.460938 1.5 C 14.449219 1.5 14.441406 1.492188 14.441406 1.480469 C 14.441406 1.472656 14.402344 1.449219 14.363281 1.425781 C 14.316406 1.402344 14.214844 1.34375 14.132812 1.296875 C 13.898438 1.160156 13.199219 0.824219 13.15625 0.824219 C 13.144531 0.824219 13.097656 0.804688 13.054688 0.785156 C 13.007812 0.761719 12.875 0.707031 12.75 0.664062 C 12.628906 0.621094 12.511719 0.578125 12.492188 0.566406 C 12.472656 0.558594 12.4375 0.550781 12.417969 0.550781 C 12.394531 0.550781 12.371094 0.539062 12.359375 0.53125 C 12.347656 0.519531 12.269531 0.496094 12.179688 0.476562 C 12.09375 0.453125 12.003906 0.429688 11.980469 0.421875 C 11.917969 0.394531 11.453125 0.289062 11.253906 0.25 C 10.894531 0.1875 10.644531 0.152344 10.355469 0.125 C 10.082031 0.105469 8.867188 0.105469 8.625 0.128906 Z M 15.011719 3.324219 C 15.011719 3.34375 15 3.355469 14.992188 3.355469 C 14.984375 3.355469 14.964844 3.375 14.957031 3.398438 C 14.945312 3.421875 14.839844 3.519531 14.726562 3.613281 C 14.609375 3.710938 14.503906 3.8125 14.492188 3.839844 C 14.480469 3.863281 14.464844 3.882812 14.457031 3.882812 C 14.445312 3.882812 14.441406 3.90625 14.441406 3.933594 C 14.441406 3.964844 14.429688 3.996094 14.417969 4 C 14.394531 4.015625 14.390625 4.421875 14.417969 4.472656 C 14.425781 4.492188 14.453125 4.5625 14.476562 4.632812 C 14.523438 4.769531 14.582031 4.945312 14.609375 5.015625 C 14.621094 5.039062 14.632812 5.082031 14.644531 5.121094 C 14.664062 5.203125 14.664062 5.8125 14.640625 6.140625 C 14.628906 6.308594 14.632812 6.492188 14.648438 6.667969 C 14.746094 7.753906 14.769531 8.847656 14.703125 9.203125 C 14.683594 9.308594 14.65625 9.394531 14.648438 9.394531 C 14.636719 9.394531 14.628906 9.410156 14.628906 9.429688 C 14.628906 9.476562 14.523438 9.574219 14.441406 9.601562 C 14.402344 9.617188 14.324219 9.625 14.265625 9.625 C 14.023438 9.625 13.855469 9.511719 13.8125 9.308594 C 13.734375 8.964844 13.726562 8.152344 13.792969 7.082031 C 13.820312 6.578125 13.824219 6.253906 13.800781 5.785156 C 13.785156 5.351562 13.804688 5.171875 13.90625 4.941406 C 14.011719 4.707031 14.058594 4.523438 14.058594 4.371094 C 14.058594 4.277344 14.050781 4.199219 14.035156 4.1875 C 14.003906 4.152344 13.671875 4.367188 13.351562 4.628906 C 13.027344 4.890625 13.011719 4.90625 12.695312 5.136719 C 12.441406 5.324219 12.371094 5.382812 12.25 5.507812 C 12.15625 5.601562 12.15625 5.605469 12.167969 5.71875 C 12.171875 5.785156 12.1875 5.878906 12.199219 5.933594 C 12.246094 6.109375 12.3125 6.324219 12.332031 6.359375 C 12.339844 6.378906 12.351562 6.417969 12.351562 6.445312 C 12.351562 6.472656 12.359375 6.503906 12.367188 6.511719 C 12.378906 6.527344 12.402344 6.617188 12.425781 6.722656 C 12.480469 7.003906 12.453125 7.351562 12.363281 7.589844 C 12.351562 7.613281 12.332031 7.667969 12.316406 7.710938 C 12.191406 8.050781 12.027344 8.277344 11.730469 8.535156 C 11.707031 8.554688 11.660156 8.59375 11.632812 8.621094 C 11.601562 8.644531 11.542969 8.695312 11.496094 8.730469 C 11.449219 8.761719 11.398438 8.800781 11.386719 8.8125 C 11.375 8.824219 11.335938 8.855469 11.304688 8.878906 C 11.269531 8.902344 11.175781 8.988281 11.089844 9.074219 C 10.875 9.296875 10.789062 9.488281 10.789062 9.742188 C 10.789062 9.878906 10.808594 9.972656 10.859375 10.089844 C 10.90625 10.199219 11.113281 10.453125 11.246094 10.570312 C 11.324219 10.636719 11.394531 10.695312 11.398438 10.703125 C 11.40625 10.710938 11.492188 10.773438 11.589844 10.839844 C 11.6875 10.90625 11.773438 10.972656 11.78125 10.976562 C 11.785156 10.984375 11.875 11.050781 11.976562 11.125 C 12.078125 11.199219 12.183594 11.277344 12.210938 11.304688 C 12.238281 11.328125 12.285156 11.367188 12.308594 11.390625 C 12.351562 11.425781 12.476562 11.566406 12.566406 11.671875 C 12.664062 11.792969 12.851562 12.253906 12.898438 12.488281 C 12.910156 12.558594 12.933594 12.652344 12.941406 12.699219 C 12.964844 12.785156 12.957031 13.367188 12.933594 13.488281 C 12.875 13.777344 12.75 14.144531 12.703125 14.160156 C 12.695312 14.164062 12.6875 14.179688 12.6875 14.191406 C 12.6875 14.289062 12.28125 14.757812 12.066406 14.917969 C 12.019531 14.949219 11.976562 14.984375 11.96875 14.988281 C 11.9375 15.019531 11.820312 15.09375 11.800781 15.09375 C 11.789062 15.09375 11.78125 15.101562 11.78125 15.109375 C 11.78125 15.121094 11.714844 15.152344 11.644531 15.1875 C 11.566406 15.222656 11.503906 15.257812 11.503906 15.265625 C 11.503906 15.277344 11.492188 15.285156 11.480469 15.285156 C 11.464844 15.285156 11.390625 15.308594 11.316406 15.339844 C 11.238281 15.371094 11.15625 15.402344 11.132812 15.414062 C 11.105469 15.421875 11.0625 15.441406 11.035156 15.453125 C 10.90625 15.5 10.554688 15.585938 10.234375 15.640625 C 9.792969 15.71875 9.203125 15.75 8.84375 15.707031 C 8.332031 15.652344 7.945312 15.570312 7.648438 15.453125 C 7.621094 15.441406 7.578125 15.421875 7.554688 15.414062 C 7.527344 15.402344 7.472656 15.382812 7.429688 15.367188 C 7.320312 15.328125 6.917969 15.128906 6.886719 15.101562 C 6.871094 15.085938 6.835938 15.0625 6.8125 15.046875 C 6.722656 15.003906 6.429688 14.761719 6.332031 14.65625 C 6.28125 14.601562 6.199219 14.5 6.152344 14.429688 C 6.109375 14.359375 6.0625 14.296875 6.058594 14.292969 C 6.042969 14.28125 5.964844 14.070312 5.914062 13.910156 C 5.882812 13.816406 5.882812 13.328125 5.910156 13.3125 C 5.921875 13.304688 5.933594 13.277344 5.933594 13.253906 C 5.933594 13.195312 6 12.976562 6.019531 12.964844 C 6.03125 12.960938 6.039062 12.941406 6.039062 12.925781 C 6.039062 12.878906 6.25 12.535156 6.363281 12.390625 C 6.476562 12.246094 6.636719 12.085938 6.765625 11.980469 C 6.824219 11.933594 6.875 11.890625 6.882812 11.882812 C 6.910156 11.851562 7.203125 11.675781 7.316406 11.625 C 7.535156 11.523438 7.628906 11.480469 7.675781 11.464844 C 7.695312 11.453125 7.738281 11.4375 7.769531 11.425781 C 7.796875 11.414062 7.882812 11.386719 7.957031 11.367188 C 8.035156 11.347656 8.113281 11.324219 8.136719 11.316406 C 8.160156 11.308594 8.238281 11.289062 8.308594 11.273438 C 8.375 11.261719 8.46875 11.242188 8.507812 11.230469 C 8.546875 11.21875 8.636719 11.207031 8.707031 11.199219 C 8.777344 11.191406 8.855469 11.179688 8.878906 11.175781 C 8.902344 11.167969 9.070312 11.15625 9.257812 11.144531 C 9.441406 11.132812 9.613281 11.121094 9.636719 11.113281 C 9.660156 11.109375 9.734375 11.105469 9.800781 11.105469 L 9.925781 11.105469 L 9.828125 10.96875 C 9.777344 10.890625 9.722656 10.796875 9.707031 10.757812 C 9.695312 10.714844 9.671875 10.683594 9.664062 10.683594 C 9.65625 10.683594 9.648438 10.664062 9.648438 10.644531 C 9.648438 10.625 9.640625 10.597656 9.632812 10.585938 C 9.585938 10.535156 9.492188 10.046875 9.511719 9.953125 C 9.515625 9.917969 9.527344 9.855469 9.535156 9.816406 C 9.546875 9.730469 9.601562 9.5625 9.632812 9.527344 C 9.664062 9.484375 9.632812 9.464844 9.546875 9.472656 C 9.429688 9.484375 8.808594 9.414062 8.632812 9.375 C 8.449219 9.328125 8.304688 9.285156 8.269531 9.265625 C 8.25 9.253906 8.21875 9.246094 8.203125 9.246094 C 8.160156 9.246094 7.753906 9.039062 7.683594 8.980469 C 7.476562 8.808594 7.34375 8.6875 7.28125 8.609375 C 7.242188 8.558594 7.207031 8.515625 7.195312 8.507812 C 7.167969 8.488281 6.976562 8.15625 6.925781 8.042969 C 6.898438 7.980469 6.871094 7.910156 6.859375 7.890625 C 6.847656 7.871094 6.839844 7.839844 6.839844 7.820312 C 6.839844 7.804688 6.832031 7.773438 6.820312 7.753906 C 6.789062 7.695312 6.691406 7.273438 6.691406 7.191406 C 6.691406 7.148438 6.683594 7.070312 6.667969 7.011719 L 6.644531 6.902344 L 5.335938 6.902344 C 4.609375 6.902344 4.03125 6.894531 4.03125 6.882812 C 4.03125 6.867188 4.121094 6.78125 4.335938 6.597656 C 4.402344 6.539062 4.472656 6.480469 4.484375 6.46875 C 4.527344 6.429688 4.84375 6.15625 4.980469 6.039062 C 5.058594 5.972656 5.160156 5.882812 5.214844 5.835938 C 5.265625 5.789062 5.320312 5.742188 5.332031 5.730469 C 5.394531 5.675781 5.488281 5.597656 5.605469 5.5 C 5.675781 5.441406 5.734375 5.390625 5.742188 5.382812 C 5.78125 5.34375 5.984375 5.167969 6.066406 5.097656 C 6.125 5.050781 6.195312 4.992188 6.226562 4.960938 C 6.277344 4.914062 6.460938 4.753906 6.566406 4.664062 C 6.585938 4.648438 6.648438 4.59375 6.703125 4.546875 C 6.761719 4.5 6.832031 4.4375 6.863281 4.410156 C 6.894531 4.382812 6.972656 4.3125 7.042969 4.253906 C 7.109375 4.195312 7.179688 4.140625 7.191406 4.128906 C 7.203125 4.117188 7.238281 4.085938 7.265625 4.0625 C 7.613281 3.761719 7.925781 3.488281 8.050781 3.375 L 8.136719 3.296875 L 11.574219 3.292969 C 14.613281 3.292969 15.011719 3.296875 15.011719 3.324219 Z M 15.011719 3.324219 "/>
<path style=" stroke:none;fill-rule:nonzero;fill:rgb(0%,0%,0%);fill-opacity:1;" d="M 9.011719 4.871094 C 8.773438 4.914062 8.738281 4.921875 8.738281 4.941406 C 8.738281 4.953125 8.726562 4.960938 8.714844 4.960938 C 8.675781 4.960938 8.464844 5.070312 8.464844 5.09375 C 8.464844 5.101562 8.457031 5.109375 8.445312 5.109375 C 8.417969 5.109375 8.328125 5.183594 8.265625 5.253906 C 8.242188 5.28125 8.210938 5.316406 8.199219 5.332031 C 8.183594 5.347656 8.171875 5.363281 8.171875 5.371094 C 8.171875 5.378906 8.136719 5.433594 8.097656 5.496094 C 8.054688 5.5625 8.023438 5.625 8.023438 5.636719 C 8.023438 5.648438 8.015625 5.675781 8.003906 5.695312 C 7.902344 5.894531 7.832031 6.226562 7.832031 6.515625 C 7.832031 6.699219 7.910156 7.191406 7.957031 7.292969 C 7.96875 7.316406 7.988281 7.371094 8 7.410156 C 8.035156 7.507812 8.082031 7.625 8.105469 7.667969 C 8.121094 7.6875 8.128906 7.71875 8.128906 7.738281 C 8.128906 7.753906 8.132812 7.769531 8.144531 7.769531 C 8.152344 7.769531 8.171875 7.800781 8.1875 7.835938 C 8.226562 7.925781 8.390625 8.179688 8.464844 8.265625 C 8.492188 8.304688 8.550781 8.371094 8.585938 8.417969 C 8.761719 8.632812 9.023438 8.851562 9.289062 8.996094 C 9.933594 9.351562 10.558594 9.195312 10.964844 8.578125 C 10.996094 8.527344 11.019531 8.476562 11.019531 8.46875 C 11.019531 8.457031 11.027344 8.445312 11.035156 8.441406 C 11.046875 8.4375 11.074219 8.386719 11.101562 8.332031 C 11.160156 8.203125 11.1875 8.125 11.269531 7.796875 C 11.300781 7.683594 11.300781 7.144531 11.269531 7.015625 C 11.1875 6.648438 11.160156 6.554688 11.144531 6.535156 C 11.132812 6.523438 11.125 6.503906 11.125 6.484375 C 11.125 6.425781 10.886719 5.933594 10.847656 5.914062 C 10.835938 5.910156 10.828125 5.894531 10.828125 5.878906 C 10.828125 5.859375 10.824219 5.847656 10.8125 5.847656 C 10.804688 5.847656 10.78125 5.8125 10.757812 5.769531 C 10.710938 5.6875 10.238281 5.191406 10.203125 5.191406 C 10.191406 5.191406 10.164062 5.175781 10.140625 5.15625 C 10.066406 5.089844 9.988281 5.046875 9.765625 4.949219 C 9.617188 4.886719 9.5625 4.875 9.371094 4.859375 C 9.230469 4.847656 9.121094 4.851562 9.011719 4.871094 Z M 9.011719 4.871094 "/>
<path style=" stroke:none;fill-rule:nonzero;fill:rgb(0%,0%,0%);fill-opacity:1;" d="M 9.332031 11.46875 C 9.085938 11.5 8.8125 11.554688 8.632812 11.605469 C 8.46875 11.648438 8.398438 11.679688 8.15625 11.792969 C 8.058594 11.835938 7.980469 11.878906 7.980469 11.886719 C 7.980469 11.890625 7.945312 11.914062 7.898438 11.933594 C 7.773438 11.992188 7.585938 12.164062 7.398438 12.375 C 7.371094 12.410156 7.234375 12.667969 7.195312 12.761719 C 7.125 12.9375 7.09375 13.339844 7.136719 13.585938 C 7.15625 13.714844 7.21875 13.933594 7.238281 13.953125 C 7.246094 13.960938 7.277344 14.023438 7.316406 14.089844 C 7.394531 14.253906 7.40625 14.269531 7.601562 14.464844 C 7.6875 14.554688 7.839844 14.675781 7.941406 14.738281 C 8.097656 14.839844 8.171875 14.878906 8.445312 14.996094 C 8.527344 15.035156 8.808594 15.113281 8.949219 15.140625 C 9.230469 15.191406 9.429688 15.203125 9.828125 15.191406 C 10.214844 15.179688 10.371094 15.160156 10.597656 15.097656 C 10.636719 15.085938 10.707031 15.066406 10.746094 15.054688 C 10.789062 15.046875 10.855469 15.019531 10.894531 15 C 10.929688 14.984375 10.972656 14.96875 10.980469 14.96875 C 11.007812 14.96875 11.242188 14.855469 11.246094 14.835938 C 11.253906 14.828125 11.265625 14.820312 11.277344 14.820312 C 11.332031 14.820312 11.78125 14.453125 11.78125 14.410156 C 11.78125 14.402344 11.804688 14.371094 11.832031 14.339844 C 11.902344 14.265625 11.996094 14.082031 12.054688 13.902344 C 12.101562 13.773438 12.105469 13.714844 12.105469 13.4375 C 12.105469 13.164062 12.101562 13.097656 12.054688 12.953125 C 11.996094 12.75 11.929688 12.582031 11.902344 12.582031 C 11.894531 12.582031 11.886719 12.570312 11.886719 12.558594 C 11.886719 12.535156 11.78125 12.386719 11.753906 12.375 C 11.742188 12.371094 11.738281 12.359375 11.738281 12.347656 C 11.738281 12.289062 11.359375 11.976562 11.15625 11.863281 C 10.742188 11.632812 10.519531 11.558594 10.058594 11.480469 C 9.875 11.453125 9.488281 11.445312 9.332031 11.46875 Z M 9.332031 11.46875 "/>
</g>
</svg>
